{
	"asset":{
		"generator":"Khronos glTF Blender I/O v4.0.44",
		"version":"2.0"
	},
	"scene":0,
	"scenes":[
		{
			"name":"Scene",
			"nodes":[
				0,
				1
			]
		}
	],
	"nodes":[
		{
			"name":"\u041f\u0443\u0441\u0442\u044b\u0448\u043a\u0430",
			"rotation":[
				0.5,
				0.5,
				-0.5,
				0.5
			],
			"translation":[
				0,
				1.7158756256103516,
				-1.239401936531067
			]
		},
		{
			"mesh":0,
			"name":"\u041a\u0443\u0431",
			"translation":[
				-0.5565354824066162,
				-0.29305726289749146,
				0
			]
		}
	],
	"materials":[
		{
			"doubleSided":true,
			"name":"\u041c\u0430\u0442\u0435\u0440\u0438\u0430\u043b.001",
			"pbrMetallicRoughness":{
				"baseColorTexture":{
					"index":0
				},
				"metallicFactor":0,
				"roughnessFactor":0
			}
		},
		{
			"doubleSided":true,
			"name":"\u041c\u0430\u0442\u0435\u0440\u0438\u0430\u043b.004",
			"pbrMetallicRoughness":{
				"baseColorTexture":{
					"index":1
				},
				"metallicFactor":0,
				"roughnessFactor":0
			}
		},
		{
			"doubleSided":true,
			"name":"\u041c\u0430\u0442\u0435\u0440\u0438\u0430\u043b.005",
			"pbrMetallicRoughness":{
				"baseColorTexture":{
					"index":2
				},
				"metallicFactor":0,
				"roughnessFactor":0
			}
		},
		{
			"doubleSided":true,
			"name":"\u041c\u0430\u0442\u0435\u0440\u0438\u0430\u043b.007",
			"pbrMetallicRoughness":{
				"baseColorTexture":{
					"index":3
				},
				"metallicFactor":0,
				"roughnessFactor":0.3669724464416504
			}
		}
	],
	"meshes":[
		{
			"name":"\u041a\u0443\u0431",
			"primitives":[
				{
					"attributes":{
						"COLOR_0":0,
						"POSITION":1,
						"NORMAL":2,
						"TEXCOORD_0":3
					},
					"indices":4,
					"material":0
				},
				{
					"attributes":{
						"COLOR_0":5,
						"POSITION":6,
						"NORMAL":7,
						"TEXCOORD_0":8
					},
					"indices":9,
					"material":1
				},
				{
					"attributes":{
						"COLOR_0":10,
						"POSITION":11,
						"NORMAL":12,
						"TEXCOORD_0":13
					},
					"indices":14,
					"material":2
				},
				{
					"attributes":{
						"COLOR_0":15,
						"POSITION":16,
						"NORMAL":17,
						"TEXCOORD_0":18
					},
					"indices":19,
					"material":3
				}
			]
		}
	],
	"textures":[
		{
			"sampler":0,
			"source":0
		},
		{
			"sampler":0,
			"source":1
		},
		{
			"sampler":0,
			"source":2
		},
		{
			"sampler":0,
			"source":3
		}
	],
	"images":[
		{
			"mimeType":"image/png",
			"name":"wakich3",
			"uri":"textures/wakich3.png"
		},
		{
			"mimeType":"image/png",
			"name":"r3r3",
			"uri":"textures/r3r3.png"
		},
		{
			"mimeType":"image/png",
			"name":"fd",
			"uri":"textures/fd.png"
		},
		{
			"mimeType":"image/png",
			"name":"wakichzen\u0443",
			"uri":"textures/wakichzen%D1%83.png"
		}
	],
	"accessors":[
		{
			"bufferView":0,
			"componentType":5123,
			"count":5728,
			"normalized":true,
			"type":"VEC4"
		},
		{
			"bufferView":1,
			"componentType":5126,
			"count":5728,
			"max":[
				1.0962576866149902,
				2.502976894378662,
				0.8267371654510498
			],
			"min":[
				0.1340419352054596,
				-0.9999999403953552,
				-0.8425240516662598
			],
			"type":"VEC3"
		},
		{
			"bufferView":2,
			"componentType":5126,
			"count":5728,
			"type":"VEC3"
		},
		{
			"bufferView":3,
			"componentType":5126,
			"count":5728,
			"type":"VEC2"
		},
		{
			"bufferView":4,
			"componentType":5123,
			"count":9780,
			"type":"SCALAR"
		},
		{
			"bufferView":5,
			"componentType":5123,
			"count":95,
			"normalized":true,
			"type":"VEC4"
		},
		{
			"bufferView":6,
			"componentType":5126,
			"count":95,
			"max":[
				1.0962576866149902,
				1.9450526237487793,
				0.8267371654510498
			],
			"min":[
				0.39127570390701294,
				-0.9999999403953552,
				0.4514262080192566
			],
			"type":"VEC3"
		},
		{
			"bufferView":7,
			"componentType":5126,
			"count":95,
			"type":"VEC3"
		},
		{
			"bufferView":8,
			"componentType":5126,
			"count":95,
			"type":"VEC2"
		},
		{
			"bufferView":9,
			"componentType":5123,
			"count":159,
			"type":"SCALAR"
		},
		{
			"bufferView":10,
			"componentType":5123,
			"count":36,
			"normalized":true,
			"type":"VEC4"
		},
		{
			"bufferView":11,
			"componentType":5126,
			"count":36,
			"max":[
				0.1890350878238678,
				1.9450551271438599,
				0.4908626079559326
			],
			"min":[
				0.1340419352054596,
				-0.9999999403953552,
				-0.7129563093185425
			],
			"type":"VEC3"
		},
		{
			"bufferView":12,
			"componentType":5126,
			"count":36,
			"type":"VEC3"
		},
		{
			"bufferView":13,
			"componentType":5126,
			"count":36,
			"type":"VEC2"
		},
		{
			"bufferView":14,
			"componentType":5123,
			"count":54,
			"type":"SCALAR"
		},
		{
			"bufferView":15,
			"componentType":5123,
			"count":751,
			"normalized":true,
			"type":"VEC4"
		},
		{
			"bufferView":16,
			"componentType":5126,
			"count":751,
			"max":[
				1.1061371564865112,
				1.58745276927948,
				0.3808266818523407
			],
			"min":[
				1.0372803211212158,
				-0.5572630763053894,
				-0.38669413328170776
			],
			"type":"VEC3"
		},
		{
			"bufferView":17,
			"componentType":5126,
			"count":751,
			"type":"VEC3"
		},
		{
			"bufferView":18,
			"componentType":5126,
			"count":751,
			"type":"VEC2"
		},
		{
			"bufferView":19,
			"componentType":5123,
			"count":1257,
			"type":"SCALAR"
		}
	],
	"bufferViews":[
		{
			"buffer":0,
			"byteLength":45824,
			"byteOffset":0,
			"target":34962
		},
		{
			"buffer":0,
			"byteLength":68736,
			"byteOffset":45824,
			"target":34962
		},
		{
			"buffer":0,
			"byteLength":68736,
			"byteOffset":114560,
			"target":34962
		},
		{
			"buffer":0,
			"byteLength":45824,
			"byteOffset":183296,
			"target":34962
		},
		{
			"buffer":0,
			"byteLength":19560,
			"byteOffset":229120,
			"target":34963
		},
		{
			"buffer":0,
			"byteLength":760,
			"byteOffset":248680,
			"target":34962
		},
		{
			"buffer":0,
			"byteLength":1140,
			"byteOffset":249440,
			"target":34962
		},
		{
			"buffer":0,
			"byteLength":1140,
			"byteOffset":250580,
			"target":34962
		},
		{
			"buffer":0,
			"byteLength":760,
			"byteOffset":251720,
			"target":34962
		},
		{
			"buffer":0,
			"byteLength":318,
			"byteOffset":252480,
			"target":34963
		},
		{
			"buffer":0,
			"byteLength":288,
			"byteOffset":252800,
			"target":34962
		},
		{
			"buffer":0,
			"byteLength":432,
			"byteOffset":253088,
			"target":34962
		},
		{
			"buffer":0,
			"byteLength":432,
			"byteOffset":253520,
			"target":34962
		},
		{
			"buffer":0,
			"byteLength":288,
			"byteOffset":253952,
			"target":34962
		},
		{
			"buffer":0,
			"byteLength":108,
			"byteOffset":254240,
			"target":34963
		},
		{
			"buffer":0,
			"byteLength":6008,
			"byteOffset":254348,
			"target":34962
		},
		{
			"buffer":0,
			"byteLength":9012,
			"byteOffset":260356,
			"target":34962
		},
		{
			"buffer":0,
			"byteLength":9012,
			"byteOffset":269368,
			"target":34962
		},
		{
			"buffer":0,
			"byteLength":6008,
			"byteOffset":278380,
			"target":34962
		},
		{
			"buffer":0,
			"byteLength":2514,
			"byteOffset":284388,
			"target":34963
		}
	],
	"samplers":[
		{
			"magFilter":9729,
			"minFilter":9987
		}
	],
	"buffers":[
		{
			"byteLength":286904,
			"uri":"waka.bin"
		}
	]
}
